<?xml version="1.0" encoding="UTF-8" standalone="no" ?>
<!DOCTYPE svg PUBLIC "-//W3C//DTD SVG 1.1//EN" "http://www.w3.org/Graphics/SVG/1.1/DTD/svg11.dtd">
<svg xmlns="http://www.w3.org/2000/svg" xmlns:xlink="http://www.w3.org/1999/xlink" version="1.1" width="356.73" height="142.54160000000002" xml:space="preserve">
<desc>Created with Fabric.js 1.6.0-rc.1</desc>
<defs></defs>
  <g transform="translate(163.17 59.6) scale(0.6 0.6)">
   <text font-family="ADAMCG PRO" font-size="40" font-weight="normal" style="stroke: none; stroke-width: 1; stroke-dasharray: none; stroke-linecap: butt; stroke-linejoin: miter; stroke-miterlimit: 10; fill: #c8005d; fill-rule: nonzero; opacity: 1;" ><tspan x="-83.15" y="8.98" style="stroke: none; stroke-width: 0; stroke-dasharray: none; stroke-linecap: butt; stroke-linejoin: miter; stroke-miterlimit: 4; fill: #c8005d; fill-rule: ; opacity: 1;">p</tspan><tspan x="-60.73" y="8.98" style="stroke: none; stroke-width: 0; stroke-dasharray: none; stroke-linecap: butt; stroke-linejoin: miter; stroke-miterlimit: 4; fill: #c8005d; fill-rule: ; opacity: 1;">e</tspan><tspan x="-37.47" y="8.98" style="stroke: none; stroke-width: 0; stroke-dasharray: none; stroke-linecap: butt; stroke-linejoin: miter; stroke-miterlimit: 4; fill: #c8005d; fill-rule: ; opacity: 1;">r</tspan><tspan x="-11.85" y="8.98" style="stroke: none; stroke-width: 0; stroke-dasharray: none; stroke-linecap: butt; stroke-linejoin: miter; stroke-miterlimit: 4; fill: #c8005d; fill-rule: ; opacity: 1;">f</tspan><tspan x="9.46" y="8.98" style="stroke: none; stroke-width: 0; stroke-dasharray: none; stroke-linecap: butt; stroke-linejoin: miter; stroke-miterlimit: 4; fill: #c8005d; fill-rule: ; opacity: 1;">e</tspan><tspan x="32.72" y="8.98" style="stroke: none; stroke-width: 0; stroke-dasharray: none; stroke-linecap: butt; stroke-linejoin: miter; stroke-miterlimit: 4; fill: #c8005d; fill-rule: ; opacity: 1;">c</tspan><tspan x="59.79" y="8.98" style="stroke: none; stroke-width: 0; stroke-dasharray: none; stroke-linecap: butt; stroke-linejoin: miter; stroke-miterlimit: 4; fill: #c8005d; fill-rule: ; opacity: 1;">t</tspan></text>
 </g>
  <g transform="translate(273.29 59.7) scale(0.6 0.6)">
   <text font-family="ADAMCG PRO" font-size="40" font-weight="normal" style="stroke: none; stroke-width: 1; stroke-dasharray: none; stroke-linecap: butt; stroke-linejoin: miter; stroke-miterlimit: 10; fill: #ffb2d7; fill-rule: nonzero; opacity: 1;" ><tspan x="-89.96" y="8.98" style="stroke: none; stroke-width: 0; stroke-dasharray: none; stroke-linecap: butt; stroke-linejoin: miter; stroke-miterlimit: 4; fill: #ffb2d7; fill-rule: ; opacity: 1;">m</tspan><tspan x="-55.86" y="8.98" style="stroke: none; stroke-width: 0; stroke-dasharray: none; stroke-linecap: butt; stroke-linejoin: miter; stroke-miterlimit: 4; fill: #ffb2d7; fill-rule: ; opacity: 1;">a</tspan><tspan x="-28.07" y="8.98" style="stroke: none; stroke-width: 0; stroke-dasharray: none; stroke-linecap: butt; stroke-linejoin: miter; stroke-miterlimit: 4; fill: #ffb2d7; fill-rule: ; opacity: 1;">t</tspan><tspan x="-4.71" y="8.98" style="stroke: none; stroke-width: 0; stroke-dasharray: none; stroke-linecap: butt; stroke-linejoin: miter; stroke-miterlimit: 4; fill: #ffb2d7; fill-rule: ; opacity: 1;">c</tspan><tspan x="22.36" y="8.98" style="stroke: none; stroke-width: 0; stroke-dasharray: none; stroke-linecap: butt; stroke-linejoin: miter; stroke-miterlimit: 4; fill: #ffb2d7; fill-rule: ; opacity: 1;">h</tspan><tspan x="49.67" y="8.98" style="stroke: none; stroke-width: 0; stroke-dasharray: none; stroke-linecap: butt; stroke-linejoin: miter; stroke-miterlimit: 4; fill: #ffb2d7; fill-rule: ; opacity: 1;">i</tspan><tspan x="60.45" y="8.98" style="stroke: none; stroke-width: 0; stroke-dasharray: none; stroke-linecap: butt; stroke-linejoin: miter; stroke-miterlimit: 4; fill: #ffb2d7; fill-rule: ; opacity: 1;">n</tspan></text>
 </g>
  <g transform="translate(186.32 83.08) scale(0.4 0.4)">
   <text font-family="ADAMCG PRO" font-size="40" font-weight="normal" style="stroke: none; stroke-width: 1; stroke-dasharray: none; stroke-linecap: butt; stroke-linejoin: miter; stroke-miterlimit: 10; fill: #f4b16e; fill-rule: nonzero; opacity: 1;" ><tspan x="-176.18" y="8.98" style="stroke: none; stroke-width: 0; stroke-dasharray: none; stroke-linecap: butt; stroke-linejoin: miter; stroke-miterlimit: 4; fill: #f4b16e; fill-rule: ; opacity: 1;">l</tspan><tspan x="-155.75" y="8.98" style="stroke: none; stroke-width: 0; stroke-dasharray: none; stroke-linecap: butt; stroke-linejoin: miter; stroke-miterlimit: 4; fill: #f4b16e; fill-rule: ; opacity: 1;">o</tspan><tspan x="-121.81" y="8.98" style="stroke: none; stroke-width: 0; stroke-dasharray: none; stroke-linecap: butt; stroke-linejoin: miter; stroke-miterlimit: 4; fill: #f4b16e; fill-rule: ; opacity: 1;">v</tspan><tspan x="-93.51" y="8.98" style="stroke: none; stroke-width: 0; stroke-dasharray: none; stroke-linecap: butt; stroke-linejoin: miter; stroke-miterlimit: 4; fill: #f4b16e; fill-rule: ; opacity: 1;">e</tspan><tspan x="-70.24" y="8.98" style="stroke: none; stroke-width: 0; stroke-dasharray: none; stroke-linecap: butt; stroke-linejoin: miter; stroke-miterlimit: 4; fill: #f4b16e; fill-rule: ; opacity: 1;"> </tspan><tspan x="-58.25" y="8.98" style="stroke: none; stroke-width: 0; stroke-dasharray: none; stroke-linecap: butt; stroke-linejoin: miter; stroke-miterlimit: 4; fill: #f4b16e; fill-rule: ; opacity: 1;">i</tspan><tspan x="-47.47" y="8.98" style="stroke: none; stroke-width: 0; stroke-dasharray: none; stroke-linecap: butt; stroke-linejoin: miter; stroke-miterlimit: 4; fill: #f4b16e; fill-rule: ; opacity: 1;">s</tspan><tspan x="-26.36" y="8.98" style="stroke: none; stroke-width: 0; stroke-dasharray: none; stroke-linecap: butt; stroke-linejoin: miter; stroke-miterlimit: 4; fill: #f4b16e; fill-rule: ; opacity: 1;"> </tspan><tspan x="-14.37" y="8.98" style="stroke: none; stroke-width: 0; stroke-dasharray: none; stroke-linecap: butt; stroke-linejoin: miter; stroke-miterlimit: 4; fill: #f4b16e; fill-rule: ; opacity: 1;">a</tspan><tspan x="13.43" y="8.98" style="stroke: none; stroke-width: 0; stroke-dasharray: none; stroke-linecap: butt; stroke-linejoin: miter; stroke-miterlimit: 4; fill: #f4b16e; fill-rule: ; opacity: 1;">n</tspan><tspan x="42.94" y="8.98" style="stroke: none; stroke-width: 0; stroke-dasharray: none; stroke-linecap: butt; stroke-linejoin: miter; stroke-miterlimit: 4; fill: #f4b16e; fill-rule: ; opacity: 1;"> </tspan><tspan x="54.93" y="8.98" style="stroke: none; stroke-width: 0; stroke-dasharray: none; stroke-linecap: butt; stroke-linejoin: miter; stroke-miterlimit: 4; fill: #f4b16e; fill-rule: ; opacity: 1;">i</tspan><tspan x="65.71" y="8.98" style="stroke: none; stroke-width: 0; stroke-dasharray: none; stroke-linecap: butt; stroke-linejoin: miter; stroke-miterlimit: 4; fill: #f4b16e; fill-rule: ; opacity: 1;">d</tspan><tspan x="92.71" y="8.98" style="stroke: none; stroke-width: 0; stroke-dasharray: none; stroke-linecap: butt; stroke-linejoin: miter; stroke-miterlimit: 4; fill: #f4b16e; fill-rule: ; opacity: 1;">e</tspan><tspan x="115.97" y="8.98" style="stroke: none; stroke-width: 0; stroke-dasharray: none; stroke-linecap: butt; stroke-linejoin: miter; stroke-miterlimit: 4; fill: #f4b16e; fill-rule: ; opacity: 1;">a</tspan><tspan x="143.76" y="8.98" style="stroke: none; stroke-width: 0; stroke-dasharray: none; stroke-linecap: butt; stroke-linejoin: miter; stroke-miterlimit: 4; fill: #f4b16e; fill-rule: ; opacity: 1;">l</tspan><tspan x="164.19" y="8.98" style="stroke: none; stroke-width: 0; stroke-dasharray: none; stroke-linecap: butt; stroke-linejoin: miter; stroke-miterlimit: 4; fill: #f4b16e; fill-rule: ; opacity: 1;"> </tspan></text>
 </g>
  <g transform="translate(187.38 106.8) scale(0.4 0.4)">
   <text font-family="ADAMCG PRO" font-size="40" font-weight="normal" style="stroke: none; stroke-width: 1; stroke-dasharray: none; stroke-linecap: butt; stroke-linejoin: miter; stroke-miterlimit: 10; fill: #000000; fill-rule: nonzero; opacity: 1;" ><tspan x="-176.13" y="8.98" style="stroke: none; stroke-width: 0; stroke-dasharray: none; stroke-linecap: butt; stroke-linejoin: miter; stroke-miterlimit: 4; fill: #000000; fill-rule: ; opacity: 1;">m</tspan><tspan x="-142.03" y="8.98" style="stroke: none; stroke-width: 0; stroke-dasharray: none; stroke-linecap: butt; stroke-linejoin: miter; stroke-miterlimit: 4; fill: #000000; fill-rule: ; opacity: 1;">a</tspan><tspan x="-114.24" y="8.98" style="stroke: none; stroke-width: 0; stroke-dasharray: none; stroke-linecap: butt; stroke-linejoin: miter; stroke-miterlimit: 4; fill: #000000; fill-rule: ; opacity: 1;">r</tspan><tspan x="-88.61" y="8.98" style="stroke: none; stroke-width: 0; stroke-dasharray: none; stroke-linecap: butt; stroke-linejoin: miter; stroke-miterlimit: 4; fill: #000000; fill-rule: ; opacity: 1;">r</tspan><tspan x="-62.99" y="8.98" style="stroke: none; stroke-width: 0; stroke-dasharray: none; stroke-linecap: butt; stroke-linejoin: miter; stroke-miterlimit: 4; fill: #000000; fill-rule: ; opacity: 1;">i</tspan><tspan x="-52.21" y="8.98" style="stroke: none; stroke-width: 0; stroke-dasharray: none; stroke-linecap: butt; stroke-linejoin: miter; stroke-miterlimit: 4; fill: #000000; fill-rule: ; opacity: 1;">a</tspan><tspan x="-24.41" y="8.98" style="stroke: none; stroke-width: 0; stroke-dasharray: none; stroke-linecap: butt; stroke-linejoin: miter; stroke-miterlimit: 4; fill: #000000; fill-rule: ; opacity: 1;">g</tspan><tspan x="3.98" y="8.98" style="stroke: none; stroke-width: 0; stroke-dasharray: none; stroke-linecap: butt; stroke-linejoin: miter; stroke-miterlimit: 4; fill: #000000; fill-rule: ; opacity: 1;">e</tspan><tspan x="27.25" y="8.98" style="stroke: none; stroke-width: 0; stroke-dasharray: none; stroke-linecap: butt; stroke-linejoin: miter; stroke-miterlimit: 4; fill: #000000; fill-rule: ; opacity: 1;"> </tspan><tspan x="39.24" y="8.98" style="stroke: none; stroke-width: 0; stroke-dasharray: none; stroke-linecap: butt; stroke-linejoin: miter; stroke-miterlimit: 4; fill: #000000; fill-rule: ; opacity: 1;">a</tspan><tspan x="67.03" y="8.98" style="stroke: none; stroke-width: 0; stroke-dasharray: none; stroke-linecap: butt; stroke-linejoin: miter; stroke-miterlimit: 4; fill: #000000; fill-rule: ; opacity: 1;"> </tspan><tspan x="79.02" y="8.98" style="stroke: none; stroke-width: 0; stroke-dasharray: none; stroke-linecap: butt; stroke-linejoin: miter; stroke-miterlimit: 4; fill: #000000; fill-rule: ; opacity: 1;">r</tspan><tspan x="104.65" y="8.98" style="stroke: none; stroke-width: 0; stroke-dasharray: none; stroke-linecap: butt; stroke-linejoin: miter; stroke-miterlimit: 4; fill: #000000; fill-rule: ; opacity: 1;">e</tspan><tspan x="127.91" y="8.98" style="stroke: none; stroke-width: 0; stroke-dasharray: none; stroke-linecap: butt; stroke-linejoin: miter; stroke-miterlimit: 4; fill: #000000; fill-rule: ; opacity: 1;">a</tspan><tspan x="155.7" y="8.98" style="stroke: none; stroke-width: 0; stroke-dasharray: none; stroke-linecap: butt; stroke-linejoin: miter; stroke-miterlimit: 4; fill: #000000; fill-rule: ; opacity: 1;">l</tspan></text>
 </g>
  <g transform="translate(290.29 99.11) scale(0.73 1.3)">
   <text font-family="ADAMCG PRO" font-size="40" font-weight="normal" style="stroke: none; stroke-width: 1; stroke-dasharray: none; stroke-linecap: butt; stroke-linejoin: miter; stroke-miterlimit: 10; fill: #000000; fill-rule: nonzero; opacity: 1;" ><tspan x="-45.48" y="8.98" style="stroke: none; stroke-width: 0; stroke-dasharray: none; stroke-linecap: butt; stroke-linejoin: miter; stroke-miterlimit: 4; fill: #000000; fill-rule: ; opacity: 1;">t</tspan><tspan x="-22.12" y="8.98" style="stroke: none; stroke-width: 0; stroke-dasharray: none; stroke-linecap: butt; stroke-linejoin: miter; stroke-miterlimit: 4; fill: #000000; fill-rule: ; opacity: 1;">h</tspan><tspan x="5.19" y="8.98" style="stroke: none; stroke-width: 0; stroke-dasharray: none; stroke-linecap: butt; stroke-linejoin: miter; stroke-miterlimit: 4; fill: #000000; fill-rule: ; opacity: 1;">i</tspan><tspan x="15.97" y="8.98" style="stroke: none; stroke-width: 0; stroke-dasharray: none; stroke-linecap: butt; stroke-linejoin: miter; stroke-miterlimit: 4; fill: #000000; fill-rule: ; opacity: 1;">n</tspan></text>
 </g>
  <g transform="translate(337.23 66.68) scale(1 1.95)">
   <text font-family="Delicate" font-size="40" font-weight="normal" style="stroke: none; stroke-width: 1; stroke-dasharray: none; stroke-linecap: butt; stroke-linejoin: miter; stroke-miterlimit: 10; fill: #ff7ffd; fill-rule: nonzero; opacity: 1;" ><tspan x="-10" y="8.98" style="stroke: none; stroke-width: 0; stroke-dasharray: none; stroke-linecap: butt; stroke-linejoin: miter; stroke-miterlimit: 4; fill: #ff7ffd; fill-rule: ; opacity: 1;">g</tspan></text>
 </g>
<g style="stroke: none; stroke-width: 1; stroke-dasharray: none; stroke-linecap: butt; stroke-linejoin: miter; stroke-miterlimit: 10; fill: none; fill-rule: nonzero; opacity: 1;" transform="translate(10 9.999999999999993) scale(0.22 0.22)" >
  <path d="M 256 512 c -105.661 0 -191.622 -85.961 -191.622 -191.622 S 150.339 128.756 256 128.756 s 191.622 85.961 191.622 191.623 S 361.661 512 256 512 z M 256 166.219 c -85.003 0 -154.158 69.155 -154.158 154.159 c 0 85.003 69.155 154.158 154.158 154.158 s 154.158 -69.155 154.158 -154.158 C 410.158 235.374 341.003 166.219 256 166.219 z" style="stroke: none; stroke-width: 1; stroke-dasharray: none; stroke-linecap: butt; stroke-linejoin: miter; stroke-miterlimit: 10; fill: #65A4D6; fill-rule: nonzero; opacity: 1;" transform=" matrix(1 0 0 1 0 0) " stroke-linecap="round" />
  <path d="M 256 128.756 v 37.463 c 85.003 0 154.158 69.155 154.158 154.159 c 0 85.003 -69.155 154.158 -154.158 154.158 V 512 c 105.661 0 191.622 -85.961 191.622 -191.622 S 361.661 128.756 256 128.756 z" style="stroke: none; stroke-width: 1; stroke-dasharray: none; stroke-linecap: butt; stroke-linejoin: miter; stroke-miterlimit: 10; fill: #3B81B2; fill-rule: nonzero; opacity: 1;" transform=" matrix(1 0 0 1 0 0) " stroke-linecap="round" />
  <path d="M 243.194 161.158 L 167.089 89.86 c -6.073 -5.689 -7.665 -14.702 -3.909 -22.126 l 29.069 -57.458 C 195.439 3.974 201.902 0 208.965 0 h 94.071 c 7.063 0 13.526 3.974 16.715 10.276 l 29.069 57.458 c 3.756 7.424 2.164 16.438 -3.909 22.126 l -76.104 71.298 C 261.603 167.906 250.397 167.906 243.194 161.158 z" style="stroke: none; stroke-width: 1; stroke-dasharray: none; stroke-linecap: butt; stroke-linejoin: miter; stroke-miterlimit: 10; fill: #FFC769; fill-rule: nonzero; opacity: 1;" transform=" matrix(1 0 0 1 0 0) " stroke-linecap="round" />
  <path d="M 348.819 67.734 L 319.75 10.276 C 316.561 3.974 310.098 0 303.035 0 H 256 v 166.219 c 4.603 0 9.205 -1.687 12.806 -5.061 l 76.104 -71.298 C 350.985 84.17 352.576 75.158 348.819 67.734 z" style="stroke: none; stroke-width: 1; stroke-dasharray: none; stroke-linecap: butt; stroke-linejoin: miter; stroke-miterlimit: 10; fill: #FFB054; fill-rule: nonzero; opacity: 1;" transform=" matrix(1 0 0 1 0 0) " stroke-linecap="round" />
  <path d="M 163.181 67.734 c -3.756 7.424 -2.164 16.438 3.909 22.126 l 5.403 5.061 h 167.016 l 5.403 -5.061 c 6.073 -5.689 7.665 -14.702 3.909 -22.126 l -5.199 -10.276 H 168.381 L 163.181 67.734 z" style="stroke: none; stroke-width: 1; stroke-dasharray: none; stroke-linecap: butt; stroke-linejoin: miter; stroke-miterlimit: 10; fill: #FFB054; fill-rule: nonzero; opacity: 1;" transform=" matrix(1 0 0 1 0 0) " stroke-linecap="round" />
  <path d="M 348.819 67.734 l -5.199 -10.276 H 256 v 37.463 h 83.508 l 5.403 -5.061 C 350.985 84.17 352.576 75.158 348.819 67.734 z" style="stroke: none; stroke-width: 1; stroke-dasharray: none; stroke-linecap: butt; stroke-linejoin: miter; stroke-miterlimit: 10; fill: #FF953B; fill-rule: nonzero; opacity: 1;" transform=" matrix(1 0 0 1 0 0) " stroke-linecap="round" />
</g>
<g style="stroke: none; stroke-width: 1; stroke-dasharray: none; stroke-linecap: butt; stroke-linejoin: miter; stroke-miterlimit: 10; fill: none; fill-rule: nonzero; opacity: 1;" transform="translate(39 56.58000000000001) scale(0.11 0.11)" >
  <path d="M 243.206 465.098 L 49.876 285.126 C -48.689 203.7 8.431 41.88 137.344 41.88 c 50.525 0 94.768 27.425 118.624 68.168 c 23.855 -40.743 68.099 -68.168 118.624 -68.168 c 128.348 0 186.481 161.465 87.46 243.255 L 268.731 465.098 C 261.541 471.791 250.398 471.792 243.206 465.098 z" style="stroke: none; stroke-width: 1; stroke-dasharray: none; stroke-linecap: butt; stroke-linejoin: miter; stroke-miterlimit: 10; fill: #FFB054; fill-rule: nonzero; opacity: 1;" transform=" matrix(1 0 0 1 0 0) " stroke-linecap="round" />
  <path d="M 374.593 41.88 c -50.516 0 -94.753 27.416 -118.612 68.147 v 360.09 c 4.579 -0.003 9.158 -1.676 12.75 -5.02 l 193.321 -179.962 C 561.074 203.347 502.941 41.88 374.593 41.88 z" style="stroke: none; stroke-width: 1; stroke-dasharray: none; stroke-linecap: butt; stroke-linejoin: miter; stroke-miterlimit: 10; fill: #FF953B; fill-rule: nonzero; opacity: 1;" transform=" matrix(1 0 0 1 0 0) " stroke-linecap="round" />
  <path d="M 243.206 333.955 l -63.309 -58.935 c -41.115 -34.419 -16.905 -101.997 37.066 -101.997 c 15.022 0 28.723 5.768 39.005 15.204 c 10.28 -9.436 23.983 -15.204 39.005 -15.204 c 53.919 0 78.212 67.547 37.071 101.993 l -63.313 58.939 C 261.541 340.648 250.398 340.65 243.206 333.955 z" style="stroke: none; stroke-width: 1; stroke-dasharray: none; stroke-linecap: butt; stroke-linejoin: miter; stroke-miterlimit: 10; fill: #F2484B; fill-rule: nonzero; opacity: 1;" transform=" matrix(1 0 0 1 0 0) " stroke-linecap="round" />
  <path d="M 294.973 173.024 c -15.017 0 -28.713 5.764 -38.992 15.193 v 150.759 c 4.579 -0.003 9.158 -1.676 12.75 -5.02 l 63.313 -58.939 C 373.187 240.571 348.894 173.024 294.973 173.024 z" style="stroke: none; stroke-width: 1; stroke-dasharray: none; stroke-linecap: butt; stroke-linejoin: miter; stroke-miterlimit: 10; fill: #BD1515; fill-rule: nonzero; opacity: 1;" transform=" matrix(1 0 0 1 0 0) " stroke-linecap="round" />
</g>
</svg>